inDegrees=no
DataType=double
version=3
OpenSimVersion=4.4-2022-10-11-798caa840
endheader
time	elv_angle	shoulder_elv	shoulder_rot	elbow_flexion	pro_sup	deviation	flexion
2.4020851434	0.3312713719	0.7851288061	0.6974134146	1.1349129427	0.0000000000	0.0000000000	0.0000000000
2.4062554301	0.3313129993	0.7851616698	0.6975010512	1.1348581698	0.0000000000	0.0000000000	0.0000000000
2.4104257168	0.3313511759	0.7851918092	0.6975814230	1.1348079374	0.0000000000	0.0000000000	0.0000000000
2.4145960035	0.3313860363	0.7852193306	0.6976548132	1.1347620685	0.0000000000	0.0000000000	0.0000000000
2.4187662902	0.3314177169	0.7852443416	0.6977215093	1.1347203835	0.0000000000	0.0000000000	0.0000000000
2.4229365769	0.3314463565	0.7852669518	0.6977818031	1.1346826998	0.0000000000	0.0000000000	0.0000000000
2.4271068636	0.3314720957	0.7852872722	0.6978359909	1.1346488325	0.0000000000	0.0000000000	0.0000000000
2.4312771503	0.3314950773	0.7853054155	0.6978843732	1.1346185936	0.0000000000	0.0000000000	0.0000000000
2.4354474370	0.3315154462	0.7853214963	0.6979272551	1.1345917923	0.0000000000	0.0000000000	0.0000000000
2.4396177237	0.3315333495	0.7853356304	0.6979649463	1.1345682354	0.0000000000	0.0000000000	0.0000000000
2.4437880104	0.3315489363	0.7853479358	0.6979977606	1.1345477264	0.0000000000	0.0000000000	0.0000000000
2.4479582971	0.3315623579	0.7853585318	0.6980260166	1.1345300664	0.0000000000	0.0000000000	0.0000000000
2.4521285838	0.3315737678	0.7853675396	0.6980500374	1.1345150534	0.0000000000	0.0000000000	0.0000000000
2.4562988705	0.3315833215	0.7853750820	0.6980701504	1.1345024828	0.0000000000	0.0000000000	0.0000000000
2.4604691573	0.3315911767	0.7853812836	0.6980866879	1.1344921469	0.0000000000	0.0000000000	0.0000000000
2.4646394440	0.3315974935	0.7853862705	0.6980999864	1.1344838353	0.0000000000	0.0000000000	0.0000000000
2.4688097307	0.3316024339	0.7853901708	0.6981103872	1.1344773348	0.0000000000	0.0000000000	0.0000000000
2.4729800174	0.3316061623	0.7853931142	0.6981182363	1.1344724291	0.0000000000	0.0000000000	0.0000000000
2.4771503041	0.3316088450	0.7853952322	0.6981238842	1.1344688991	0.0000000000	0.0000000000	0.0000000000
2.4813205908	0.3316106509	0.7853966579	0.6981276861	1.1344665230	0.0000000000	0.0000000000	0.0000000000
2.4854908775	0.3316117508	0.7853975263	0.6981300017	1.1344650757	0.0000000000	0.0000000000	0.0000000000
2.4896611642	0.3316123180	0.7853979740	0.6981311958	1.1344643294	0.0000000000	0.0000000000	0.0000000000
2.4938314509	0.3316125278	0.7853981397	0.6981316375	1.1344640534	0.0000000000	0.0000000000	0.0000000000
2.4980017376	0.3316125579	0.7853981634	0.6981317008	1.1344640138	0.0000000000	0.0000000000	0.0000000000
2.5021720243	0.3316125579	0.7853981634	0.6981317008	1.1344640138	0.0000000000	0.0000000000	0.0000000000
2.5063423110	0.3316125579	0.7853981634	0.6981317008	1.1344640138	0.0000000000	0.0000000000	0.0000000000
2.5105125977	0.3316125579	0.7853981634	0.6981317008	1.1344640138	0.0000000000	0.0000000000	0.0000000000
2.5146828844	0.3316125579	0.7853981634	0.6981317008	1.1344640138	0.0000000000	0.0000000000	0.0000000000
2.5188531712	0.3316125579	0.7853981634	0.6981317008	1.1344640138	0.0000000000	0.0000000000	0.0000000000
2.5230234579	0.3316125579	0.7853981634	0.6981317008	1.1344640138	0.0000000000	0.0000000000	0.0000000000
2.5271937446	0.3316125579	0.7853981634	0.6981317008	1.1344640138	0.0000000000	0.0000000000	0.0000000000
2.5313640313	0.3316125579	0.7853981634	0.6981317008	1.1344640138	0.0000000000	0.0000000000	0.0000000000
2.5355343180	0.3316125579	0.7853981634	0.6981317008	1.1344640138	0.0000000000	0.0000000000	0.0000000000
2.5397046047	0.3316125579	0.7853981634	0.6981317008	1.1344640138	0.0000000000	0.0000000000	0.0000000000
2.5438748914	0.3316125579	0.7853981634	0.6981317008	1.1344640138	0.0000000000	0.0000000000	0.0000000000
2.5480451781	0.3316125579	0.7853981634	0.6981317008	1.1344640138	0.0000000000	0.0000000000	0.0000000000
2.5522154648	0.3316125579	0.7853981634	0.6981317008	1.1344640138	0.0000000000	0.0000000000	0.0000000000
2.5563857515	0.3316125579	0.7853981634	0.6981317008	1.1344640138	0.0000000000	0.0000000000	0.0000000000
2.5605560382	0.3316125579	0.7853981634	0.6981317008	1.1344640138	0.0000000000	0.0000000000	0.0000000000
2.5647263249	0.3316125579	0.7853981634	0.6981317008	1.1344640138	0.0000000000	0.0000000000	0.0000000000
2.5688966116	0.3316125579	0.7853981634	0.6981317008	1.1344640138	0.0000000000	0.0000000000	0.0000000000
2.5730668983	0.3316125579	0.7853981634	0.6981317008	1.1344640138	0.0000000000	0.0000000000	0.0000000000
2.5772371851	0.3316125579	0.7853981634	0.6981317008	1.1344640138	0.0000000000	0.0000000000	0.0000000000
2.5814074718	0.3316125579	0.7853981634	0.6981317008	1.1344640138	0.0000000000	0.0000000000	0.0000000000
2.5855777585	0.3316125579	0.7853981634	0.6981317008	1.1344640138	0.0000000000	0.0000000000	0.0000000000
2.5897480452	0.3316125579	0.7853981634	0.6981317008	1.1344640138	0.0000000000	0.0000000000	0.0000000000
2.5939183319	0.3316125579	0.7853981634	0.6981317008	1.1344640138	0.0000000000	0.0000000000	0.0000000000
2.5980886186	0.3316125579	0.7853981634	0.6981317008	1.1344640138	0.0000000000	0.0000000000	0.0000000000
2.6022589053	0.3316125579	0.7853981634	0.6981317008	1.1344640138	0.0000000000	0.0000000000	0.0000000000
2.6064291920	0.3316125579	0.7853981634	0.6981317008	1.1344640138	0.0000000000	0.0000000000	0.0000000000
2.6105994787	0.3316125579	0.7853981634	0.6981317008	1.1344640138	0.0000000000	0.0000000000	0.0000000000
2.6147697654	0.3316125579	0.7853981634	0.6981317008	1.1344640138	0.0000000000	0.0000000000	0.0000000000
2.6189400521	0.3316125579	0.7853981634	0.6981317008	1.1344640138	0.0000000000	0.0000000000	0.0000000000
2.6231103388	0.3316125579	0.7853981634	0.6981317008	1.1344640138	0.0000000000	0.0000000000	0.0000000000
2.6272806255	0.3316125579	0.7853981634	0.6981317008	1.1344640138	0.0000000000	0.0000000000	0.0000000000
2.6314509123	0.3316125579	0.7853981634	0.6981317008	1.1344640138	0.0000000000	0.0000000000	0.0000000000
2.6356211990	0.3316125579	0.7853981634	0.6981317008	1.1344640138	0.0000000000	0.0000000000	0.0000000000
2.6397914857	0.3316125579	0.7853981634	0.6981317008	1.1344640138	0.0000000000	0.0000000000	0.0000000000
2.6439617724	0.3316125579	0.7853981634	0.6981317008	1.1344640138	0.0000000000	0.0000000000	0.0000000000
2.6481320591	0.3316125579	0.7853981634	0.6981317008	1.1344640138	0.0000000000	0.0000000000	0.0000000000
2.6523023458	0.3316125579	0.7853981634	0.6981317008	1.1344640138	0.0000000000	0.0000000000	0.0000000000
2.6564726325	0.3316125579	0.7853981634	0.6981317008	1.1344640138	0.0000000000	0.0000000000	0.0000000000
2.6606429192	0.3316125579	0.7853981634	0.6981317008	1.1344640138	0.0000000000	0.0000000000	0.0000000000
2.6648132059	0.3316125579	0.7853981634	0.6981317008	1.1344640138	0.0000000000	0.0000000000	0.0000000000
2.6689834926	0.3316125579	0.7853981634	0.6981317008	1.1344640138	0.0000000000	0.0000000000	0.0000000000
2.6731537793	0.3316125579	0.7853981634	0.6981317008	1.1344640138	0.0000000000	0.0000000000	0.0000000000
2.6773240660	0.3316125579	0.7853981634	0.6981317008	1.1344640138	0.0000000000	0.0000000000	0.0000000000
2.6814943527	0.3316125579	0.7853981634	0.6981317008	1.1344640138	0.0000000000	0.0000000000	0.0000000000
2.6856646394	0.3316125579	0.7853981634	0.6981317008	1.1344640138	0.0000000000	0.0000000000	0.0000000000
2.6898349262	0.3316125579	0.7853981634	0.6981317008	1.1344640138	0.0000000000	0.0000000000	0.0000000000
2.6940052129	0.3316125579	0.7853981634	0.6981317008	1.1344640138	0.0000000000	0.0000000000	0.0000000000
2.6981754996	0.3316125579	0.7853981634	0.6981317008	1.1344640138	0.0000000000	0.0000000000	0.0000000000
2.7023457863	0.3316125579	0.7853981634	0.6981317008	1.1344640138	0.0000000000	0.0000000000	0.0000000000
2.7065160730	0.3316125579	0.7853981634	0.6981317008	1.1344640138	0.0000000000	0.0000000000	0.0000000000
2.7106863597	0.3316125579	0.7853981634	0.6981317008	1.1344640138	0.0000000000	0.0000000000	0.0000000000
2.7148566464	0.3316125579	0.7853981634	0.6981317008	1.1344640138	0.0000000000	0.0000000000	0.0000000000
2.7190269331	0.3316125579	0.7853981634	0.6981317008	1.1344640138	0.0000000000	0.0000000000	0.0000000000
2.7231972198	0.3316125579	0.7853981634	0.6981317008	1.1344640138	0.0000000000	0.0000000000	0.0000000000
2.7273675065	0.3316125579	0.7853981634	0.6981317008	1.1344640138	0.0000000000	0.0000000000	0.0000000000
2.7315377932	0.3316125579	0.7853981634	0.6981317008	1.1344640138	0.0000000000	0.0000000000	0.0000000000
2.7357080799	0.3316125579	0.7853981634	0.6981317008	1.1344640138	0.0000000000	0.0000000000	0.0000000000
2.7398783666	0.3316125579	0.7853981634	0.6981317008	1.1344640138	0.0000000000	0.0000000000	0.0000000000
2.7440486533	0.3316125579	0.7853981634	0.6981317008	1.1344640138	0.0000000000	0.0000000000	0.0000000000
2.7482189401	0.3316125579	0.7853981634	0.6981317008	1.1344640138	0.0000000000	0.0000000000	0.0000000000
2.7523892268	0.3316125579	0.7853981634	0.6981317008	1.1344640138	0.0000000000	0.0000000000	0.0000000000
2.7565595135	0.3316125579	0.7853981634	0.6981317008	1.1344640138	0.0000000000	0.0000000000	0.0000000000
2.7607298002	0.3316125579	0.7853981634	0.6981317008	1.1344640138	0.0000000000	0.0000000000	0.0000000000
2.7649000869	0.3316125579	0.7853981634	0.6981317008	1.1344640138	0.0000000000	0.0000000000	0.0000000000
2.7690703736	0.3316125579	0.7853981634	0.6981317008	1.1344640138	0.0000000000	0.0000000000	0.0000000000
2.7732406603	0.3316125579	0.7853981634	0.6981317008	1.1344640138	0.0000000000	0.0000000000	0.0000000000
2.7774109470	0.3316125579	0.7853981634	0.6981317008	1.1344640138	0.0000000000	0.0000000000	0.0000000000
2.7815812337	0.3316125579	0.7853981634	0.6981317008	1.1344640138	0.0000000000	0.0000000000	0.0000000000
2.7857515204	0.3316125579	0.7853981634	0.6981317008	1.1344640138	0.0000000000	0.0000000000	0.0000000000
2.7899218071	0.3316125579	0.7853981634	0.6981317008	1.1344640138	0.0000000000	0.0000000000	0.0000000000
2.7940920938	0.3316125579	0.7853981634	0.6981317008	1.1344640138	0.0000000000	0.0000000000	0.0000000000
2.7982623805	0.3316125579	0.7853981634	0.6981317008	1.1344640138	0.0000000000	0.0000000000	0.0000000000
2.8024326672	0.3316125579	0.7853981634	0.6981317008	1.1344640138	0.0000000000	0.0000000000	0.0000000000
2.8066029540	0.3316125579	0.7853981634	0.6981317008	1.1344640138	0.0000000000	0.0000000000	0.0000000000
2.8107732407	0.3316125579	0.7853981634	0.6981317008	1.1344640138	0.0000000000	0.0000000000	0.0000000000
2.8149435274	0.3316125579	0.7853981634	0.6981317008	1.1344640138	0.0000000000	0.0000000000	0.0000000000
2.8191138141	0.3316125579	0.7853981634	0.6981317008	1.1344640138	0.0000000000	0.0000000000	0.0000000000
2.8232841008	0.3316125579	0.7853981634	0.6981317008	1.1344640138	0.0000000000	0.0000000000	0.0000000000
2.8274543875	0.3316125579	0.7853981634	0.6981317008	1.1344640138	0.0000000000	0.0000000000	0.0000000000
2.8316246742	0.3316125579	0.7853981634	0.6981317008	1.1344640138	0.0000000000	0.0000000000	0.0000000000
2.8357949609	0.3316125579	0.7853981634	0.6981317008	1.1344640138	0.0000000000	0.0000000000	0.0000000000
